<mxfile host="65bd71144e">
    <diagram id="cs8eAwnBnD0t727MsK7l" name="Страница 1">
        <mxGraphModel dx="1404" dy="458" grid="0" gridSize="10" guides="1" tooltips="1" connect="1" arrows="1" fold="1" page="1" pageScale="1" pageWidth="827" pageHeight="1169" background="#ffffff" math="0" shadow="0">
            <root>
                <mxCell id="0"/>
                <mxCell id="1" parent="0"/>
                <mxCell id="46" value="" style="rounded=1;whiteSpace=wrap;html=1;fillColor=#FFF;strokeColor=#050505;" vertex="1" parent="1">
                    <mxGeometry x="630" y="19" width="539" height="237" as="geometry"/>
                </mxCell>
                <mxCell id="40" value="" style="rounded=1;whiteSpace=wrap;html=1;fillColor=#FFF;strokeColor=#050505;" vertex="1" parent="1">
                    <mxGeometry x="140" y="227" width="353" height="254" as="geometry"/>
                </mxCell>
                <mxCell id="39" value="" style="rounded=1;whiteSpace=wrap;html=1;fillColor=#FFF;strokeColor=#050505;align=right;" vertex="1" parent="1">
                    <mxGeometry x="198" y="29" width="310" height="156" as="geometry"/>
                </mxCell>
                <mxCell id="93" style="edgeStyle=none;html=1;entryX=1;entryY=0.5;entryDx=0;entryDy=0;shadow=1;strokeColor=#757575;fontSize=14;fontColor=#000000;fillColor=none;" edge="1" parent="1" source="15" target="16">
                    <mxGeometry relative="1" as="geometry"/>
                </mxCell>
                <mxCell id="94" style="edgeStyle=none;html=1;entryX=1;entryY=0.5;entryDx=0;entryDy=0;shadow=1;strokeColor=#757575;fontSize=14;fontColor=#000000;fillColor=none;" edge="1" parent="1" source="15" target="17">
                    <mxGeometry relative="1" as="geometry"/>
                </mxCell>
                <mxCell id="15" value="&lt;font color=&quot;#000000&quot;&gt;Аккаунт&lt;br&gt;&lt;/font&gt;" style="rounded=0;whiteSpace=wrap;html=1;strokeColor=#757575;fillColor=#FFFFFF;" parent="1" vertex="1">
                    <mxGeometry x="344" y="84" width="120" height="60" as="geometry"/>
                </mxCell>
                <mxCell id="16" value="&lt;font color=&quot;#000000&quot;&gt;Роль&lt;br&gt;&lt;/font&gt;" style="rounded=0;whiteSpace=wrap;html=1;strokeColor=#757575;fillColor=#FFFFFF;" parent="1" vertex="1">
                    <mxGeometry x="235.5" y="120" width="56" height="45" as="geometry"/>
                </mxCell>
                <mxCell id="17" value="&lt;font color=&quot;#000000&quot;&gt;Клюв попуга&lt;br&gt;&lt;/font&gt;" style="rounded=0;whiteSpace=wrap;html=1;strokeColor=#757575;fillColor=#FFFFFF;" parent="1" vertex="1">
                    <mxGeometry x="233" y="58" width="61" height="40" as="geometry"/>
                </mxCell>
                <mxCell id="95" style="edgeStyle=none;html=1;entryX=1;entryY=0.5;entryDx=0;entryDy=0;shadow=1;strokeColor=#757575;fontSize=14;fontColor=#000000;fillColor=none;" edge="1" parent="1" source="21" target="36">
                    <mxGeometry relative="1" as="geometry"/>
                </mxCell>
                <mxCell id="96" style="edgeStyle=none;html=1;entryX=1;entryY=0.5;entryDx=0;entryDy=0;shadow=1;strokeColor=#757575;fontSize=14;fontColor=#000000;fillColor=none;" edge="1" parent="1" source="21" target="23">
                    <mxGeometry relative="1" as="geometry"/>
                </mxCell>
                <mxCell id="97" style="edgeStyle=none;html=1;entryX=1;entryY=0.5;entryDx=0;entryDy=0;shadow=1;strokeColor=#757575;fontSize=14;fontColor=#000000;fillColor=none;" edge="1" parent="1" source="21" target="22">
                    <mxGeometry relative="1" as="geometry"/>
                </mxCell>
                <mxCell id="99" style="edgeStyle=none;html=1;shadow=1;strokeColor=#757575;fontSize=14;fontColor=#000000;fillColor=none;" edge="1" parent="1" source="21" target="98">
                    <mxGeometry relative="1" as="geometry"/>
                </mxCell>
                <mxCell id="21" value="&lt;font color=&quot;#000000&quot;&gt;Задача&lt;br&gt;&lt;/font&gt;" style="rounded=0;whiteSpace=wrap;html=1;strokeColor=#757575;fillColor=#FFFFFF;" parent="1" vertex="1">
                    <mxGeometry x="336" y="349" width="120" height="60" as="geometry"/>
                </mxCell>
                <mxCell id="22" value="&lt;font color=&quot;#000000&quot;&gt;Цена назначения&lt;br&gt;&lt;/font&gt;" style="rounded=0;whiteSpace=wrap;html=1;strokeColor=#757575;fillColor=#FFFFFF;" parent="1" vertex="1">
                    <mxGeometry x="177" y="365" width="78" height="38" as="geometry"/>
                </mxCell>
                <mxCell id="23" value="&lt;font color=&quot;#000000&quot;&gt;Награда за выполнение&lt;br&gt;&lt;/font&gt;" style="rounded=0;whiteSpace=wrap;html=1;strokeColor=#757575;fillColor=#FFFFFF;" parent="1" vertex="1">
                    <mxGeometry x="173" y="310" width="82" height="42" as="geometry"/>
                </mxCell>
                <mxCell id="31" style="edgeStyle=none;html=1;exitX=1;exitY=0.5;exitDx=0;exitDy=0;entryX=0;entryY=0.5;entryDx=0;entryDy=0;strokeColor=#000000;fontColor=#000000;fillColor=#000000;" parent="1" source="27" target="29" edge="1">
                    <mxGeometry relative="1" as="geometry"/>
                </mxCell>
                <mxCell id="32" style="edgeStyle=none;html=1;entryX=0;entryY=0.5;entryDx=0;entryDy=0;strokeColor=#000000;fontColor=#000000;fillColor=#000000;" parent="1" source="27" target="30" edge="1">
                    <mxGeometry relative="1" as="geometry">
                        <Array as="points">
                            <mxPoint x="999" y="153"/>
                        </Array>
                    </mxGeometry>
                </mxCell>
                <mxCell id="27" value="&lt;font color=&quot;#000000&quot;&gt;Счет&lt;br&gt;&lt;/font&gt;" style="rounded=0;whiteSpace=wrap;html=1;strokeColor=#757575;fillColor=#FFFFFF;" parent="1" vertex="1">
                    <mxGeometry x="853" y="91.5" width="120" height="60" as="geometry"/>
                </mxCell>
                <mxCell id="29" value="&lt;font color=&quot;#000000&quot;&gt;Выплаты&lt;br&gt;&lt;/font&gt;" style="rounded=0;whiteSpace=wrap;html=1;strokeColor=#757575;fillColor=#FFFFFF;" parent="1" vertex="1">
                    <mxGeometry x="1023" y="65" width="110" height="50" as="geometry"/>
                </mxCell>
                <mxCell id="30" value="&lt;font color=&quot;#000000&quot;&gt;Аудит-лог&lt;br&gt;&lt;/font&gt;" style="rounded=0;whiteSpace=wrap;html=1;strokeColor=#757575;fillColor=#FFFFFF;" parent="1" vertex="1">
                    <mxGeometry x="1023" y="140" width="107" height="53" as="geometry"/>
                </mxCell>
                <mxCell id="36" value="&lt;font color=&quot;#000000&quot;&gt;Статус&lt;br&gt;&lt;/font&gt;" style="rounded=0;whiteSpace=wrap;html=1;strokeColor=#757575;fillColor=#FFFFFF;" vertex="1" parent="1">
                    <mxGeometry x="172" y="423" width="83" height="32" as="geometry"/>
                </mxCell>
                <mxCell id="86" style="edgeStyle=none;html=1;shadow=1;strokeColor=#757575;fontSize=14;fontColor=#000000;fillColor=none;" edge="1" parent="1" source="41" target="84">
                    <mxGeometry relative="1" as="geometry"/>
                </mxCell>
                <mxCell id="41" value="&lt;font color=&quot;#000000&quot;&gt;Аккаунт&lt;br&gt;&lt;/font&gt;" style="rounded=0;whiteSpace=wrap;html=1;strokeColor=#757575;fillColor=#FFFFFF;" vertex="1" parent="1">
                    <mxGeometry x="346.5" y="253" width="115" height="60" as="geometry"/>
                </mxCell>
                <mxCell id="43" value="" style="edgeStyle=none;html=1;strokeColor=#000000;fontColor=#000000;fillColor=#000000;entryX=0.571;entryY=-0.047;entryDx=0;entryDy=0;exitX=0.5;exitY=1;exitDx=0;exitDy=0;entryPerimeter=0;" edge="1" parent="1" source="41" target="21">
                    <mxGeometry relative="1" as="geometry">
                        <mxPoint x="290" y="379.7368421052631" as="sourcePoint"/>
                        <mxPoint x="255" y="393" as="targetPoint"/>
                    </mxGeometry>
                </mxCell>
                <mxCell id="48" value="&lt;font color=&quot;#000000&quot;&gt;Аккаунт&lt;br&gt;&lt;/font&gt;" style="rounded=0;whiteSpace=wrap;html=1;strokeColor=#757575;fillColor=#FFFFFF;" vertex="1" parent="1">
                    <mxGeometry x="682" y="42" width="120" height="60" as="geometry"/>
                </mxCell>
                <mxCell id="51" value="" style="rounded=1;whiteSpace=wrap;html=1;fillColor=#FFF;strokeColor=#050505;" vertex="1" parent="1">
                    <mxGeometry x="666" y="304" width="508" height="239" as="geometry"/>
                </mxCell>
                <mxCell id="52" value="&lt;font color=&quot;#000000&quot;&gt;Аккаунт&lt;br&gt;&lt;/font&gt;" style="rounded=0;whiteSpace=wrap;html=1;strokeColor=#757575;fillColor=#FFFFFF;" vertex="1" parent="1">
                    <mxGeometry x="699" y="323" width="115" height="60" as="geometry"/>
                </mxCell>
                <mxCell id="101" style="edgeStyle=none;html=1;shadow=1;strokeColor=#757575;fontSize=14;fontColor=#000000;fillColor=none;" edge="1" parent="1" source="54" target="100">
                    <mxGeometry relative="1" as="geometry"/>
                </mxCell>
                <mxCell id="54" value="&lt;font color=&quot;#000000&quot;&gt;Задача&lt;br&gt;&lt;/font&gt;" style="rounded=0;whiteSpace=wrap;html=1;strokeColor=#757575;fillColor=#FFFFFF;" vertex="1" parent="1">
                    <mxGeometry x="686.5" y="136.5" width="120" height="60" as="geometry"/>
                </mxCell>
                <mxCell id="62" value="&lt;font color=&quot;#000000&quot;&gt;Счет&lt;br&gt;&lt;/font&gt;" style="rounded=0;whiteSpace=wrap;html=1;strokeColor=#757575;fillColor=#FFFFFF;" vertex="1" parent="1">
                    <mxGeometry x="860" y="323" width="120" height="60" as="geometry"/>
                </mxCell>
                <mxCell id="111" style="edgeStyle=none;html=1;shadow=1;strokeColor=#757575;fontSize=14;fontColor=#000000;fillColor=none;" edge="1" parent="1" source="66" target="109">
                    <mxGeometry relative="1" as="geometry"/>
                </mxCell>
                <mxCell id="112" style="edgeStyle=none;html=1;shadow=1;strokeColor=#757575;fontSize=14;fontColor=#000000;fillColor=none;" edge="1" parent="1" source="66" target="110">
                    <mxGeometry relative="1" as="geometry"/>
                </mxCell>
                <mxCell id="66" value="&lt;font color=&quot;#000000&quot;&gt;Задача&lt;br&gt;&lt;/font&gt;" style="rounded=0;whiteSpace=wrap;html=1;strokeColor=#757575;fillColor=#FFFFFF;" vertex="1" parent="1">
                    <mxGeometry x="733" y="411" width="120" height="60" as="geometry"/>
                </mxCell>
                <mxCell id="68" value="&lt;font color=&quot;#000000&quot;&gt;Аудит-лог&lt;br&gt;&lt;/font&gt;" style="rounded=0;whiteSpace=wrap;html=1;strokeColor=#757575;fillColor=#FFFFFF;" vertex="1" parent="1">
                    <mxGeometry x="1023" y="323" width="120" height="60" as="geometry"/>
                </mxCell>
                <mxCell id="72" value="" style="endArrow=none;dashed=1;html=1;dashPattern=1 3;strokeWidth=2;shadow=1;strokeColor=#757575;fillColor=none;exitX=1;exitY=0.5;exitDx=0;exitDy=0;" edge="1" parent="1" source="15" target="48">
                    <mxGeometry width="50" height="50" relative="1" as="geometry">
                        <mxPoint x="652" y="196" as="sourcePoint"/>
                        <mxPoint x="702" y="146" as="targetPoint"/>
                    </mxGeometry>
                </mxCell>
                <mxCell id="73" value="" style="endArrow=none;dashed=1;html=1;dashPattern=1 3;strokeWidth=2;shadow=1;strokeColor=#757575;fillColor=none;exitX=0.5;exitY=0;exitDx=0;exitDy=0;entryX=0.5;entryY=1;entryDx=0;entryDy=0;" edge="1" parent="1" source="41" target="15">
                    <mxGeometry width="50" height="50" relative="1" as="geometry">
                        <mxPoint x="474" y="124" as="sourcePoint"/>
                        <mxPoint x="682" y="101.49253731343276" as="targetPoint"/>
                    </mxGeometry>
                </mxCell>
                <mxCell id="74" value="" style="endArrow=none;dashed=1;html=1;dashPattern=1 3;strokeWidth=2;shadow=1;strokeColor=#757575;fillColor=none;exitX=0;exitY=0;exitDx=0;exitDy=0;entryX=1;entryY=1;entryDx=0;entryDy=0;" edge="1" parent="1" source="52" target="15">
                    <mxGeometry width="50" height="50" relative="1" as="geometry">
                        <mxPoint x="414" y="263" as="sourcePoint"/>
                        <mxPoint x="414" y="154" as="targetPoint"/>
                    </mxGeometry>
                </mxCell>
                <mxCell id="75" value="" style="endArrow=none;dashed=1;html=1;dashPattern=1 3;strokeWidth=2;shadow=1;strokeColor=#757575;fillColor=none;exitX=1;exitY=0;exitDx=0;exitDy=0;entryX=0;entryY=0.5;entryDx=0;entryDy=0;" edge="1" parent="1" source="21" target="54">
                    <mxGeometry width="50" height="50" relative="1" as="geometry">
                        <mxPoint x="709" y="333" as="sourcePoint"/>
                        <mxPoint x="474" y="154" as="targetPoint"/>
                    </mxGeometry>
                </mxCell>
                <mxCell id="76" value="" style="endArrow=none;dashed=1;html=1;dashPattern=1 3;strokeWidth=2;shadow=1;strokeColor=#757575;fillColor=none;exitX=1;exitY=0.5;exitDx=0;exitDy=0;entryX=0;entryY=0.5;entryDx=0;entryDy=0;" edge="1" parent="1" source="21" target="66">
                    <mxGeometry width="50" height="50" relative="1" as="geometry">
                        <mxPoint x="466" y="359" as="sourcePoint"/>
                        <mxPoint x="699" y="186" as="targetPoint"/>
                    </mxGeometry>
                </mxCell>
                <mxCell id="77" value="" style="endArrow=none;dashed=1;html=1;dashPattern=1 3;strokeWidth=2;shadow=1;strokeColor=#757575;fillColor=none;entryX=0.559;entryY=1.008;entryDx=0;entryDy=0;entryPerimeter=0;exitX=0.5;exitY=0;exitDx=0;exitDy=0;" edge="1" parent="1" source="62" target="27">
                    <mxGeometry width="50" height="50" relative="1" as="geometry">
                        <mxPoint x="873" y="277" as="sourcePoint"/>
                        <mxPoint x="923" y="227" as="targetPoint"/>
                    </mxGeometry>
                </mxCell>
                <mxCell id="78" value="" style="endArrow=none;dashed=1;html=1;dashPattern=1 3;strokeWidth=2;shadow=1;strokeColor=#757575;fillColor=none;entryX=0.5;entryY=1;entryDx=0;entryDy=0;exitX=0.5;exitY=0;exitDx=0;exitDy=0;" edge="1" parent="1" source="68" target="30">
                    <mxGeometry width="50" height="50" relative="1" as="geometry">
                        <mxPoint x="930" y="333" as="sourcePoint"/>
                        <mxPoint x="927.0800000000004" y="125.48000000000002" as="targetPoint"/>
                    </mxGeometry>
                </mxCell>
                <mxCell id="79" value="&lt;font style=&quot;font-size: 14px;&quot; color=&quot;#000000&quot;&gt;&lt;b&gt;&lt;i&gt;&lt;u&gt;Домен задач&lt;/u&gt;&lt;/i&gt;&lt;/b&gt;&lt;/font&gt;" style="text;strokeColor=none;align=center;fillColor=none;html=1;verticalAlign=middle;whiteSpace=wrap;rounded=0;" vertex="1" parent="1">
                    <mxGeometry x="150" y="238" width="109" height="30" as="geometry"/>
                </mxCell>
                <mxCell id="81" value="&lt;font style=&quot;font-size: 14px;&quot; color=&quot;#000000&quot;&gt;&lt;b&gt;&lt;i&gt;&lt;u&gt;Домен аналитики&lt;/u&gt;&lt;/i&gt;&lt;/b&gt;&lt;/font&gt;" style="text;strokeColor=none;align=center;fillColor=none;html=1;verticalAlign=middle;whiteSpace=wrap;rounded=0;" vertex="1" parent="1">
                    <mxGeometry x="1011" y="439" width="140" height="30" as="geometry"/>
                </mxCell>
                <mxCell id="82" value="&lt;font style=&quot;font-size: 14px;&quot; color=&quot;#000000&quot;&gt;&lt;b&gt;&lt;i&gt;&lt;u&gt;Домен счета&lt;/u&gt;&lt;/i&gt;&lt;/b&gt;&lt;/font&gt;" style="text;strokeColor=none;align=center;fillColor=none;html=1;verticalAlign=middle;whiteSpace=wrap;rounded=0;" vertex="1" parent="1">
                    <mxGeometry x="858.5" y="32" width="109" height="30" as="geometry"/>
                </mxCell>
                <mxCell id="83" value="&lt;font style=&quot;font-size: 14px;&quot; color=&quot;#000000&quot;&gt;&lt;b&gt;&lt;i&gt;&lt;u&gt;Домен аккаунта&lt;/u&gt;&lt;/i&gt;&lt;/b&gt;&lt;/font&gt;" style="text;strokeColor=none;align=center;fillColor=none;html=1;verticalAlign=middle;whiteSpace=wrap;rounded=0;" vertex="1" parent="1">
                    <mxGeometry x="332" y="32" width="120" height="30" as="geometry"/>
                </mxCell>
                <mxCell id="84" value="&lt;font color=&quot;#000000&quot;&gt;Роль&lt;br&gt;&lt;/font&gt;" style="rounded=0;whiteSpace=wrap;html=1;strokeColor=#757575;fillColor=#FFFFFF;" vertex="1" parent="1">
                    <mxGeometry x="269" y="259" width="56" height="45" as="geometry"/>
                </mxCell>
                <mxCell id="98" value="&lt;font color=&quot;#000000&quot;&gt;Описание&lt;br&gt;&lt;/font&gt;" style="rounded=0;whiteSpace=wrap;html=1;strokeColor=#757575;fillColor=#FFFFFF;" vertex="1" parent="1">
                    <mxGeometry x="311.5" y="439" width="83" height="32" as="geometry"/>
                </mxCell>
                <mxCell id="100" value="&lt;font color=&quot;#000000&quot;&gt;Описание&lt;br&gt;&lt;/font&gt;" style="rounded=0;whiteSpace=wrap;html=1;strokeColor=#757575;fillColor=#FFFFFF;" vertex="1" parent="1">
                    <mxGeometry x="705" y="212" width="83" height="32" as="geometry"/>
                </mxCell>
                <mxCell id="103" style="edgeStyle=none;html=1;entryX=1;entryY=0.75;entryDx=0;entryDy=0;strokeColor=#000000;fontColor=#000000;fillColor=#000000;exitX=0;exitY=0.75;exitDx=0;exitDy=0;" edge="1" parent="1" source="30" target="54">
                    <mxGeometry relative="1" as="geometry">
                        <mxPoint x="983" y="153.47674418604652" as="sourcePoint"/>
                        <mxPoint x="1033" y="176.5" as="targetPoint"/>
                        <Array as="points"/>
                    </mxGeometry>
                </mxCell>
                <mxCell id="104" style="edgeStyle=none;html=1;exitX=1;exitY=0.5;exitDx=0;exitDy=0;entryX=0;entryY=0;entryDx=0;entryDy=0;strokeColor=#000000;fontColor=#000000;fillColor=#000000;" edge="1" parent="1" source="48" target="27">
                    <mxGeometry relative="1" as="geometry">
                        <mxPoint x="983" y="131.5" as="sourcePoint"/>
                        <mxPoint x="1033" y="95" as="targetPoint"/>
                    </mxGeometry>
                </mxCell>
                <mxCell id="105" style="edgeStyle=none;html=1;exitX=1;exitY=0.5;exitDx=0;exitDy=0;entryX=0;entryY=0.5;entryDx=0;entryDy=0;strokeColor=#000000;fontColor=#000000;fillColor=#000000;" edge="1" parent="1" source="52" target="62">
                    <mxGeometry relative="1" as="geometry">
                        <mxPoint x="993" y="141.5" as="sourcePoint"/>
                        <mxPoint x="1043" y="105" as="targetPoint"/>
                    </mxGeometry>
                </mxCell>
                <mxCell id="106" style="edgeStyle=none;html=1;exitX=0;exitY=1;exitDx=0;exitDy=0;entryX=1;entryY=0.5;entryDx=0;entryDy=0;strokeColor=#000000;fontColor=#000000;fillColor=#000000;" edge="1" parent="1" source="68" target="66">
                    <mxGeometry relative="1" as="geometry">
                        <mxPoint x="912" y="552.5" as="sourcePoint"/>
                        <mxPoint x="962" y="516" as="targetPoint"/>
                    </mxGeometry>
                </mxCell>
                <mxCell id="107" style="edgeStyle=none;html=1;exitX=1;exitY=0.5;exitDx=0;exitDy=0;entryX=0;entryY=0.5;entryDx=0;entryDy=0;strokeColor=#000000;fontColor=#000000;fillColor=#000000;" edge="1" parent="1" source="62" target="68">
                    <mxGeometry relative="1" as="geometry">
                        <mxPoint x="922" y="562.5" as="sourcePoint"/>
                        <mxPoint x="972" y="526" as="targetPoint"/>
                    </mxGeometry>
                </mxCell>
                <mxCell id="109" value="&lt;font color=&quot;#000000&quot;&gt;Награда за выполнение&lt;br&gt;&lt;/font&gt;" style="rounded=0;whiteSpace=wrap;html=1;strokeColor=#757575;fillColor=#FFFFFF;" vertex="1" parent="1">
                    <mxGeometry x="691" y="493" width="82" height="42" as="geometry"/>
                </mxCell>
                <mxCell id="110" value="&lt;font color=&quot;#000000&quot;&gt;Статус&lt;br&gt;&lt;/font&gt;" style="rounded=0;whiteSpace=wrap;html=1;strokeColor=#757575;fillColor=#FFFFFF;" vertex="1" parent="1">
                    <mxGeometry x="810" y="493" width="83" height="32" as="geometry"/>
                </mxCell>
            </root>
        </mxGraphModel>
    </diagram>
</mxfile>